<mxfile host="app.diagrams.net" modified="2020-08-29T11:04:56.754Z" agent="5.0 (X11)" etag="ZagPsGhLZYLqVn2UpmlS" version="13.6.5" type="github">
  <diagram id="6a731a19-8d31-9384-78a2-239565b7b9f0" name="Page-1">
    <mxGraphModel dx="3869" dy="2361" grid="1" gridSize="10" guides="1" tooltips="1" connect="1" arrows="1" fold="1" page="1" pageScale="1" pageWidth="1169" pageHeight="827" background="#ffffff" math="0" shadow="0">
      <root>
        <mxCell id="0" />
        <mxCell id="1" parent="0" />
        <mxCell id="1745" value="" style="edgeStyle=none;rounded=0;jumpStyle=none;html=1;shadow=0;labelBackgroundColor=none;startArrow=none;startFill=0;endArrow=classic;endFill=1;jettySize=auto;orthogonalLoop=1;strokeColor=#2F5B7C;strokeWidth=3;fontFamily=Helvetica;fontSize=16;fontColor=#23445D;spacing=5;" parent="1" source="1749" target="1764" edge="1">
          <mxGeometry relative="1" as="geometry" />
        </mxCell>
        <mxCell id="1746" value="" style="edgeStyle=none;rounded=0;jumpStyle=none;html=1;shadow=0;labelBackgroundColor=none;startArrow=none;startFill=0;endArrow=classic;endFill=1;jettySize=auto;orthogonalLoop=1;strokeWidth=3;fontFamily=Helvetica;fontSize=16;fontColor=#23445D;spacing=5;strokeColor=#2F5B7C;" parent="1" source="1749" target="1771" edge="1">
          <mxGeometry relative="1" as="geometry" />
        </mxCell>
        <mxCell id="1747" value="" style="edgeStyle=none;rounded=0;jumpStyle=none;html=1;shadow=0;labelBackgroundColor=none;startArrow=none;startFill=0;endArrow=classic;endFill=1;jettySize=auto;orthogonalLoop=1;strokeColor=#2F5B7C;strokeWidth=3;fontFamily=Helvetica;fontSize=16;fontColor=#23445D;spacing=5;" parent="1" source="1749" target="1760" edge="1">
          <mxGeometry relative="1" as="geometry" />
        </mxCell>
        <mxCell id="1748" value="" style="edgeStyle=none;rounded=0;jumpStyle=none;html=1;shadow=0;labelBackgroundColor=none;startArrow=none;startFill=0;endArrow=classic;endFill=1;jettySize=auto;orthogonalLoop=1;strokeColor=#2F5B7C;strokeWidth=3;fontFamily=Helvetica;fontSize=16;fontColor=#23445D;spacing=5;" parent="1" source="1749" target="1753" edge="1">
          <mxGeometry relative="1" as="geometry" />
        </mxCell>
        <mxCell id="JNt-UArOL0wCspvx3wer-1780" value="" style="rounded=0;orthogonalLoop=1;jettySize=auto;html=1;strokeColor=#2F5B7C;strokeWidth=3;" edge="1" parent="1" source="1749" target="JNt-UArOL0wCspvx3wer-1779">
          <mxGeometry relative="1" as="geometry" />
        </mxCell>
        <mxCell id="1749" value="SOLID" style="rounded=1;whiteSpace=wrap;html=1;shadow=0;labelBackgroundColor=none;strokeColor=none;strokeWidth=3;fillColor=#2F5B7C;fontFamily=Helvetica;fontSize=16;fontColor=#FFFFFF;align=center;fontStyle=1;spacing=5;arcSize=7;perimeterSpacing=2;" parent="1" vertex="1">
          <mxGeometry x="495" y="380.5" width="150" height="70" as="geometry" />
        </mxCell>
        <mxCell id="1750" value="" style="edgeStyle=none;rounded=1;jumpStyle=none;html=1;shadow=0;labelBackgroundColor=none;startArrow=none;startFill=0;jettySize=auto;orthogonalLoop=1;strokeColor=#E85642;strokeWidth=3;fontFamily=Helvetica;fontSize=14;fontColor=#FFFFFF;spacing=5;fontStyle=1;fillColor=#b0e3e6;" parent="1" source="1753" target="1756" edge="1">
          <mxGeometry relative="1" as="geometry" />
        </mxCell>
        <mxCell id="1752" value="" style="edgeStyle=none;rounded=1;jumpStyle=none;html=1;shadow=0;labelBackgroundColor=none;startArrow=none;startFill=0;jettySize=auto;orthogonalLoop=1;strokeColor=#E85642;strokeWidth=3;fontFamily=Helvetica;fontSize=14;fontColor=#FFFFFF;spacing=5;fontStyle=1;fillColor=#b0e3e6;" parent="1" source="1753" target="1754" edge="1">
          <mxGeometry relative="1" as="geometry" />
        </mxCell>
        <mxCell id="1753" value="&lt;h2&gt;&lt;font style=&quot;font-size: 14px&quot;&gt;Liskov Substitution Principle&lt;br&gt;(Принцип подстановки Барбары Лисков)&lt;/font&gt;&lt;br&gt;&lt;/h2&gt;" style="rounded=1;whiteSpace=wrap;html=1;shadow=0;labelBackgroundColor=none;strokeColor=none;strokeWidth=3;fillColor=#e85642;fontFamily=Helvetica;fontSize=14;fontColor=#FFFFFF;align=center;spacing=5;fontStyle=1;arcSize=7;perimeterSpacing=2;" parent="1" vertex="1">
          <mxGeometry x="11" y="361" width="215" height="104.5" as="geometry" />
        </mxCell>
        <mxCell id="1754" value="&lt;b&gt;Описание принципа:&lt;/b&gt;&lt;br&gt;&lt;div align=&quot;justify&quot;&gt;Значит, любая реализация абстракции (интерфейса) должна быть взаимозаменяемой в любом месте, в котором принимается эта абстракция. По сути, когда мы используем в коде интерфейсы, то используем контракт не только по &lt;br&gt;входным данным, принимаемым интерфейсом, но и по выходным данным, &lt;br&gt;возвращаемым разными классами, реализующими этот интерфейс. В обоих &lt;br&gt;случаях данные должны быть одного типа.&lt;/div&gt;" style="rounded=1;whiteSpace=wrap;html=1;shadow=0;labelBackgroundColor=none;strokeColor=none;strokeWidth=3;fillColor=#f08e81;fontFamily=Helvetica;fontSize=14;fontColor=#FFFFFF;align=center;spacing=5;fontStyle=0;arcSize=7;perimeterSpacing=2;" parent="1" vertex="1">
          <mxGeometry x="-540" y="465.5" width="501" height="200.4" as="geometry" />
        </mxCell>
        <mxCell id="1756" value="&lt;div&gt;&lt;b&gt;Суть Принципа:&lt;br&gt;&lt;/b&gt;&lt;div align=&quot;left&quot;&gt;Функции, использующие указатели ссылок на базовые классы, должны уметь использовать объекты производных классов, даже не зная об этом.&lt;br&gt;&lt;/div&gt;&lt;/div&gt;" style="rounded=1;whiteSpace=wrap;html=1;shadow=0;labelBackgroundColor=none;strokeColor=none;strokeWidth=3;fillColor=#f08e81;fontFamily=Helvetica;fontSize=14;fontColor=#FFFFFF;align=center;spacing=5;fontStyle=0;arcSize=7;perimeterSpacing=2;" parent="1" vertex="1">
          <mxGeometry x="-330" y="244.60000000000002" width="291" height="116.4" as="geometry" />
        </mxCell>
        <mxCell id="1757" value="" style="edgeStyle=none;rounded=0;jumpStyle=none;html=1;shadow=0;labelBackgroundColor=none;startArrow=none;startFill=0;endArrow=classic;endFill=1;jettySize=auto;orthogonalLoop=1;strokeColor=#1699D3;strokeWidth=3;fontFamily=Helvetica;fontSize=14;fontColor=#FFFFFF;spacing=5;" parent="1" source="1760" target="1763" edge="1">
          <mxGeometry relative="1" as="geometry" />
        </mxCell>
        <mxCell id="1759" value="" style="edgeStyle=none;rounded=0;jumpStyle=none;html=1;shadow=0;labelBackgroundColor=none;startArrow=none;startFill=0;endArrow=classic;endFill=1;jettySize=auto;orthogonalLoop=1;strokeColor=#1699D3;strokeWidth=3;fontFamily=Helvetica;fontSize=14;fontColor=#FFFFFF;spacing=5;" parent="1" source="1760" target="1761" edge="1">
          <mxGeometry relative="1" as="geometry" />
        </mxCell>
        <mxCell id="1760" value="&lt;h2&gt;&lt;font style=&quot;font-size: 14px&quot;&gt;Interface Segregation Principle&lt;br&gt;(Принцип разделения интерфейса)&lt;br&gt;&lt;/font&gt;&lt;/h2&gt;" style="rounded=1;whiteSpace=wrap;html=1;shadow=0;labelBackgroundColor=none;strokeColor=none;strokeWidth=3;fillColor=#1699d3;fontFamily=Helvetica;fontSize=14;fontColor=#FFFFFF;align=center;spacing=5;fontStyle=1;arcSize=7;perimeterSpacing=2;" parent="1" vertex="1">
          <mxGeometry x="58.86" y="695" width="225" height="90" as="geometry" />
        </mxCell>
        <mxCell id="1761" value="&lt;div&gt;&lt;b&gt;Описание Принципа:&lt;/b&gt;&lt;/div&gt;&lt;div align=&quot;justify&quot;&gt;&lt;span style=&quot;font-weight: normal&quot;&gt;Это означает, что нужно разбивать интерфейсы на более мелкие, лучше удовлетворяющие конкретным потребностям клиентов.&lt;/span&gt;&lt;/div&gt;&lt;div align=&quot;justify&quot;&gt;&lt;span style=&quot;font-weight: normal&quot;&gt;&lt;br&gt;&lt;/span&gt;&lt;/div&gt;&lt;div align=&quot;justify&quot;&gt;&lt;span style=&quot;font-weight: normal&quot;&gt;Как и в случае с принципом единственной ответственности, цель принципа разделения интерфейса заключается в минимизации побочных эффектов и повторов за счёт разделения ПО на независимые части.&lt;/span&gt;&lt;/div&gt;" style="rounded=1;whiteSpace=wrap;html=1;shadow=0;labelBackgroundColor=none;strokeColor=none;strokeWidth=3;fillColor=#64bbe2;fontFamily=Helvetica;fontSize=14;fontColor=#FFFFFF;align=center;spacing=5;arcSize=7;perimeterSpacing=2;" parent="1" vertex="1">
          <mxGeometry x="283.86" y="827" width="457.5" height="183" as="geometry" />
        </mxCell>
        <mxCell id="1763" value="&lt;div&gt;&lt;b&gt;Суть Принципа:&lt;/b&gt;&lt;/div&gt;&lt;div align=&quot;justify&quot;&gt;&lt;span style=&quot;font-weight: normal&quot;&gt;Нельзя заставлять клиента реализовать интерфейс, которым он не пользуется&lt;/span&gt;.&lt;/div&gt;" style="rounded=1;whiteSpace=wrap;html=1;shadow=0;labelBackgroundColor=none;strokeColor=none;strokeWidth=3;fillColor=#64bbe2;fontFamily=Helvetica;fontSize=14;fontColor=#FFFFFF;align=center;spacing=5;arcSize=7;perimeterSpacing=2;" parent="1" vertex="1">
          <mxGeometry x="-180" y="827" width="238.86" height="120" as="geometry" />
        </mxCell>
        <mxCell id="1764" value="&lt;h2&gt;&lt;font style=&quot;font-size: 14px&quot;&gt;Single Responsibility Principle&lt;br&gt;&lt;/font&gt;&lt;font style=&quot;font-size: 14px&quot;&gt;(&lt;/font&gt;&lt;font style=&quot;font-size: 14px&quot;&gt;&lt;span&gt;Принцип единственной ответственности&lt;/span&gt;&lt;font style=&quot;font-size: 14px&quot;&gt;)&lt;/font&gt;&lt;/font&gt;&lt;font style=&quot;font-size: 14px&quot;&gt;&lt;br&gt;&lt;/font&gt;&lt;/h2&gt;" style="rounded=1;whiteSpace=wrap;html=1;shadow=0;labelBackgroundColor=none;strokeColor=none;strokeWidth=3;fillColor=#F08705;fontFamily=Helvetica;fontSize=14;fontColor=#FFFFFF;align=center;spacing=5;fontStyle=1;arcSize=7;perimeterSpacing=2;" parent="1" vertex="1">
          <mxGeometry x="410" y="95.75" width="255" height="89.5" as="geometry" />
        </mxCell>
        <mxCell id="1765" value="&lt;div&gt;&lt;b&gt;Описание принципа:&lt;/b&gt;&lt;/div&gt;&lt;div&gt;&lt;br&gt;&lt;div align=&quot;justify&quot;&gt;Один класс должен решать только какую-то одну задачу. Он может иметь &lt;br&gt;несколько методов, но они должны использоваться лишь для решения общей &lt;br&gt;задачи. Все методы и свойства должны служить одной цели. Если класс &lt;br&gt;имеет несколько назначений, его нужно разделить на отдельные классы.&lt;br&gt;&lt;/div&gt;&lt;b&gt;&lt;br&gt;&lt;br&gt;&lt;/b&gt;&lt;/div&gt;" style="rounded=1;whiteSpace=wrap;html=1;shadow=0;labelBackgroundColor=none;strokeColor=none;strokeWidth=3;fillColor=#f5af58;fontFamily=Helvetica;fontSize=14;fontColor=#FFFFFF;align=center;spacing=5;arcSize=7;perimeterSpacing=2;" parent="1" vertex="1">
          <mxGeometry x="665" y="-150" width="500" height="200" as="geometry" />
        </mxCell>
        <mxCell id="1766" value="" style="edgeStyle=none;rounded=0;jumpStyle=none;html=1;shadow=0;labelBackgroundColor=none;startArrow=none;startFill=0;endArrow=classic;endFill=1;jettySize=auto;orthogonalLoop=1;strokeColor=#F08705;strokeWidth=3;fontFamily=Helvetica;fontSize=14;fontColor=#FFFFFF;spacing=5;" parent="1" source="1764" target="1765" edge="1">
          <mxGeometry relative="1" as="geometry" />
        </mxCell>
        <mxCell id="1769" value="&lt;b&gt;Суть принципа:&lt;/b&gt;&lt;br&gt;Существует лишь одна причина, приводящая к изменению класса." style="rounded=1;whiteSpace=wrap;html=1;shadow=0;labelBackgroundColor=none;strokeColor=none;strokeWidth=3;fillColor=#f5af58;fontFamily=Helvetica;fontSize=14;fontColor=#FFFFFF;align=center;spacing=5;arcSize=7;perimeterSpacing=2;" parent="1" vertex="1">
          <mxGeometry x="135" y="-60" width="275" height="110" as="geometry" />
        </mxCell>
        <mxCell id="1770" value="" style="edgeStyle=none;rounded=0;jumpStyle=none;html=1;shadow=0;labelBackgroundColor=none;startArrow=none;startFill=0;endArrow=classic;endFill=1;jettySize=auto;orthogonalLoop=1;strokeColor=#F08705;strokeWidth=3;fontFamily=Helvetica;fontSize=14;fontColor=#FFFFFF;spacing=5;" parent="1" source="1764" target="1769" edge="1">
          <mxGeometry relative="1" as="geometry" />
        </mxCell>
        <mxCell id="1771" value="&lt;h2&gt;&lt;font style=&quot;font-size: 14px&quot;&gt;Open-closed Principle&lt;br&gt;(Принцип открытости/закрытости&lt;/font&gt;&lt;font style=&quot;font-size: 14px&quot;&gt;)&lt;br&gt;&lt;/font&gt;&lt;/h2&gt;" style="rounded=1;whiteSpace=wrap;html=1;shadow=0;labelBackgroundColor=none;strokeColor=none;strokeWidth=3;fillColor=#12aab5;fontFamily=Helvetica;fontSize=14;fontColor=#FFFFFF;align=center;spacing=5;fontStyle=1;arcSize=7;perimeterSpacing=2;" parent="1" vertex="1">
          <mxGeometry x="990" y="330" width="195" height="85.5" as="geometry" />
        </mxCell>
        <mxCell id="1772" value="&lt;div align=&quot;center&quot;&gt;&lt;b&gt;Описание принципа:&lt;br&gt;&lt;/b&gt;&lt;/div&gt;&lt;div align=&quot;justify&quot;&gt;Программные сущности (классы, модули, функции и прочее) должны быть расширяемыми без изменения своего содержимого. Если строго соблюдать этот принцип, то&lt;br&gt; можно регулировать поведение кода без изменения самого &lt;br&gt;исходника.&lt;/div&gt;" style="rounded=1;whiteSpace=wrap;html=1;shadow=0;labelBackgroundColor=none;strokeColor=none;strokeWidth=3;fillColor=#61c6ce;fontFamily=Helvetica;fontSize=14;fontColor=#FFFFFF;align=center;spacing=5;fontStyle=0;arcSize=7;perimeterSpacing=2;" parent="1" vertex="1">
          <mxGeometry x="1185" y="465.5" width="425" height="170" as="geometry" />
        </mxCell>
        <mxCell id="1773" value="" style="edgeStyle=none;rounded=1;jumpStyle=none;html=1;shadow=0;labelBackgroundColor=none;startArrow=none;startFill=0;jettySize=auto;orthogonalLoop=1;strokeColor=#12AAB5;strokeWidth=3;fontFamily=Helvetica;fontSize=14;fontColor=#FFFFFF;spacing=5;fontStyle=1;fillColor=#b0e3e6;" parent="1" source="1771" target="1772" edge="1">
          <mxGeometry relative="1" as="geometry" />
        </mxCell>
        <mxCell id="1778" value="&lt;b&gt;Суть Принципа:&lt;/b&gt;&lt;br&gt;Программные сущности должны быть открыты для расширения, но закрыты для модификации." style="rounded=1;whiteSpace=wrap;html=1;shadow=0;labelBackgroundColor=none;strokeColor=none;strokeWidth=3;fillColor=#61c6ce;fontFamily=Helvetica;fontSize=14;fontColor=#FFFFFF;align=center;spacing=5;fontStyle=0;arcSize=7;perimeterSpacing=2;" parent="1" vertex="1">
          <mxGeometry x="1185" y="170" width="273.75" height="109.5" as="geometry" />
        </mxCell>
        <mxCell id="1779" value="" style="edgeStyle=none;rounded=1;jumpStyle=none;html=1;shadow=0;labelBackgroundColor=none;startArrow=none;startFill=0;jettySize=auto;orthogonalLoop=1;strokeColor=#12AAB5;strokeWidth=3;fontFamily=Helvetica;fontSize=14;fontColor=#FFFFFF;spacing=5;fontStyle=1;fillColor=#b0e3e6;" parent="1" source="1771" target="1778" edge="1">
          <mxGeometry relative="1" as="geometry" />
        </mxCell>
        <mxCell id="JNt-UArOL0wCspvx3wer-1783" value="" style="edgeStyle=none;rounded=0;orthogonalLoop=1;jettySize=auto;html=1;strokeColor=#2F5B7C;strokeWidth=3;" edge="1" parent="1" source="JNt-UArOL0wCspvx3wer-1779" target="JNt-UArOL0wCspvx3wer-1782">
          <mxGeometry relative="1" as="geometry" />
        </mxCell>
        <mxCell id="JNt-UArOL0wCspvx3wer-1785" value="" style="edgeStyle=none;rounded=0;orthogonalLoop=1;jettySize=auto;html=1;strokeColor=#2F5B7C;strokeWidth=3;" edge="1" parent="1" source="JNt-UArOL0wCspvx3wer-1779" target="JNt-UArOL0wCspvx3wer-1784">
          <mxGeometry relative="1" as="geometry" />
        </mxCell>
        <mxCell id="JNt-UArOL0wCspvx3wer-1779" value="&lt;h2 style=&quot;font-size: 14px&quot;&gt;&lt;font style=&quot;font-size: 14px&quot;&gt;Dependency Inversion Principle&lt;br&gt;(Принцип инверсии зависимостей)&lt;br&gt;&lt;/font&gt;&lt;/h2&gt;" style="whiteSpace=wrap;html=1;rounded=1;shadow=0;fontSize=16;fontColor=#FFFFFF;fontStyle=1;strokeColor=none;strokeWidth=3;spacing=5;arcSize=7;fillColor=#2755C2;" vertex="1" parent="1">
          <mxGeometry x="1175" y="717" width="210" height="105" as="geometry" />
        </mxCell>
        <mxCell id="JNt-UArOL0wCspvx3wer-1782" value="&lt;div&gt;Суть Принципа:&lt;/div&gt;&lt;div&gt;&lt;span style=&quot;font-weight: normal&quot;&gt;Высокоуровневые модули недолжны зависеть от низкоуровневых. Оба вида модулей должны зависеть от абстракций.&lt;/span&gt;&lt;/div&gt;" style="whiteSpace=wrap;html=1;rounded=1;shadow=0;fontSize=16;fontColor=#FFFFFF;fontStyle=1;strokeColor=none;strokeWidth=3;fillColor=#2755C2;spacing=5;arcSize=7;" vertex="1" parent="1">
          <mxGeometry x="869" y="860" width="306" height="153" as="geometry" />
        </mxCell>
        <mxCell id="JNt-UArOL0wCspvx3wer-1784" value="&lt;div&gt;Описание Принципа:&lt;/div&gt;&lt;div align=&quot;justify&quot;&gt;&lt;span style=&quot;font-weight: normal&quot;&gt;Проще говоря: зависьте от абстракций, а не от чего-то конкретного.&lt;br&gt;&lt;br&gt;Применяя этот принцип, одни модули можно легко заменять другими, всего лишь&amp;nbsp; меняя модуль зависимости, и тогда никакие перемены в низкоуровневом модуле не повлияют на высокоуровневый.&lt;/span&gt;&lt;/div&gt;" style="whiteSpace=wrap;html=1;rounded=1;shadow=0;fontSize=16;fontColor=#FFFFFF;fontStyle=1;strokeColor=none;strokeWidth=3;fillColor=#2755C2;spacing=5;arcSize=7;" vertex="1" parent="1">
          <mxGeometry x="1385" y="860" width="446" height="223" as="geometry" />
        </mxCell>
      </root>
    </mxGraphModel>
  </diagram>
</mxfile>
